<?xml version="1.0" encoding="UTF-8"?>
<svg id="Vrstva_1" data-name="Vrstva 1" xmlns="http://www.w3.org/2000/svg" viewBox="0 0 1200 600">
  <defs>
    <style>
      .cls-1 {
        fill: #4a6a82;
      }

      .cls-1, .cls-2, .cls-3, .cls-4 {
        stroke-width: 0px;
      }

      .cls-2 {
        fill: #65999b;
      }

      .cls-3 {
        fill: #2b3a67;
      }

      .cls-4 {
        fill: #fff;
      }
    </style>
  </defs>
  <g>
    <rect class="cls-3" x="177.87" y="206.5" width="312.08" height="187"/>
    <g>
      <path class="cls-4" d="M248.62,273.36c-6.91,0-13.05,1.69-18.09,4.76v-4.81h-14.48v32.33h.06c0,.12-.02.24-.02.37v56.15h14.72v-35c4.33,6.8,11.63,10.51,20.41,10.51,14.84,0,30.42-10.64,30.42-31.54,0-19.42-13.6-32.77-33.02-32.77ZM248.74,323.94c-10.76,0-17.93-7.67-17.93-18.43s7.17-18.43,17.93-18.43,18.06,7.67,18.06,18.43-7.3,18.43-18.06,18.43Z"/>
      <path class="cls-4" d="M290.06,305.52c0-18.55,13.6-32.16,32.9-32.16s32.9,13.6,32.9,32.16-13.6,32.16-32.9,32.16-32.9-13.6-32.9-32.16ZM340.9,305.52c0-10.76-7.17-18.43-17.93-18.43s-18.06,7.67-18.06,18.43,7.3,18.43,18.06,18.43,17.93-7.67,17.93-18.43Z"/>
      <path class="cls-4" d="M451.78,339.37h-13.71l-12.23-44.34-13.3,44.34h-12.76l-13.3-44.47-12.09,44.47h-13.57l19.75-63.42h11.82l13.84,47.29,13.71-47.29h11.82l20.02,63.42Z"/>
    </g>
  </g>
  <g>
    <rect class="cls-2" x="709.75" y="206.5" width="312.38" height="187"/>
    <g>
      <path class="cls-4" d="M754.29,255.5h14.77v88.13h-14.77v-88.13Z"/>
      <path class="cls-4" d="M780.85,313.47c0-19.49,13.65-32.89,33.14-32.89s32.65,13.03,32.65,32.77v30.16h-13.53v-12.04c-3.72,9.06-12.04,13.65-21.72,13.65-14.89,0-30.54-10.67-30.54-31.65ZM831.87,312.85c0-10.8-7.2-18.49-18-18.49s-18.12,7.7-18.12,18.49,7.32,18.49,18.12,18.49,18-7.7,18-18.49Z"/>
      <path class="cls-4" d="M915.39,280.71l-.08,14.27,39.18.07-36.43,34.13-14.94-48.44h-12.6l-13.13,43.78-12.07-43.78h-13.53l19.77,62.62h11.67l13.53-46.7,13.66,46.7s6.34.06,12.04.06l41.09-39.58.62,39.13h13.42v-62.15s-62.2-.13-62.2-.13Z"/>
    </g>
  </g>
  <g>
    <rect class="cls-1" x="507.44" y="206.5" width="184.82" height="187"/>
    <g id="flowRoot2985">
      <path id="path3035" class="cls-4" d="M613.21,350.01c-7.04,3.45-15.53,5.17-25.47,5.17s-17.98-3-23.51-8.99c-5.53-5.99-8.3-14.47-8.3-25.44,0-5.63.84-10.5,2.51-14.63,1.67-4.12,4.74-8.39,9.21-12.81-6.84-6.79-10.26-13.85-10.26-21.18,0-7.42,2.8-13.77,8.41-19.03,5.6-5.26,13.11-7.9,22.53-7.9,10,0,17.71,2.21,23.14,6.62l-6.04,11.21c-5.53-4.61-10.48-6.91-14.85-6.91-12.91,0-19.36,5.82-19.36,17.47,0,6.31,2.81,11.65,8.44,16.01h27.07v-18.61l13.83-.02v18.85h18.12v11.65h-18.12v24.02c0,6.7.9,11.26,2.69,13.68,1.8,2.43,4.9,3.64,9.32,3.64,2.62,0,5.7-.9,9.24-2.69l1.97,12.88c-5.09,1.46-10.92,2.18-17.47,2.18-4.51,0-8.88-1.72-13.1-5.17h0ZM606.73,330.87v-29.4h-29.33c-4.61,5.92-6.91,12.13-6.91,18.63,0,15.14,7.4,22.71,22.2,22.71,6.6,0,11.55-1.19,14.85-3.57-.53-2.23-.8-5.02-.8-8.37Z"/>
    </g>
  </g>
</svg>