<?xml version="1.0" encoding="UTF-8"?>
<svg id="Vrstva_1" data-name="Vrstva 1" xmlns="http://www.w3.org/2000/svg" viewBox="0 0 252.99 513.85">
  <defs>
    <style>
      .cls-1 {
        fill: #1d1d1b;
      }

      .cls-1, .cls-2 {
        stroke-width: 0px;
      }

      .cls-2 {
        fill: #fff;
      }
    </style>
  </defs>
  <rect class="cls-1" x="32.19" y="79.56" width="188.61" height="113.02"/>
  <rect class="cls-1" x="32.26" y="199.8" width="188.47" height="113.05"/>
  <rect class="cls-1" x="32.44" y="321.68" width="188.1" height="112.61"/>
  <g>
    <path class="cls-2" d="M74.95,119.89c-4.18,0-7.88,1.02-10.93,2.88v-2.9h-8.75v19.54h.04c0,.08,0,.15,0,.22v33.93h8.89v-21.15c2.62,4.11,7.03,6.35,12.33,6.35,8.97,0,18.39-6.43,18.39-19.06,0-11.74-8.22-19.81-19.96-19.81ZM75.02,150.46c-6.5,0-10.84-4.63-10.84-11.14s4.34-11.14,10.84-11.14,10.91,4.63,10.91,11.14-4.41,11.14-10.91,11.14Z"/>
    <path class="cls-2" d="M99.99,139.33c0-11.21,8.22-19.43,19.88-19.43s19.88,8.22,19.88,19.43-8.22,19.43-19.88,19.43-19.88-8.22-19.88-19.43ZM130.71,139.33c0-6.5-4.33-11.14-10.84-11.14s-10.91,4.63-10.91,11.14,4.41,11.14,10.91,11.14,10.84-4.63,10.84-11.14Z"/>
    <path class="cls-2" d="M197.73,159.78h-8.28l-7.39-26.8-8.04,26.8h-7.71l-8.04-26.88-7.31,26.88h-8.2l11.94-38.33h7.15l8.36,28.58,8.28-28.58h7.15l12.1,38.33Z"/>
  </g>
  <g>
    <path class="cls-2" d="M55.26,348.93h8.9v53.07h-8.9v-53.07Z"/>
    <path class="cls-2" d="M71.26,383.84c0-11.74,8.22-19.81,19.96-19.81s19.66,7.85,19.66,19.73v18.16h-8.15v-7.25c-2.24,5.46-7.25,8.22-13.08,8.22-8.97,0-18.39-6.43-18.39-19.06ZM101.98,383.47c0-6.5-4.33-11.14-10.84-11.14s-10.91,4.63-10.91,11.14,4.41,11.14,10.91,11.14,10.84-4.63,10.84-11.14Z"/>
    <path class="cls-2" d="M152.27,364.11l-.05,8.59,23.59.04-21.93,20.55-9-29.17h-7.59l-7.91,26.36-7.27-26.36h-8.15l11.9,37.71h7.03l8.15-28.12,8.23,28.12s3.82.04,7.25.04l24.74-23.83.37,23.56h8.08v-37.42s-37.45-.08-37.45-.08Z"/>
  </g>
  <g id="flowRoot2985">
    <path id="path3035" class="cls-2" d="M87.63,287.46c-4.25,2.08-9.38,3.12-15.4,3.12s-10.86-1.81-14.21-5.43c-3.34-3.62-5.01-8.75-5.01-15.37,0-3.4.51-6.35,1.52-8.84,1.01-2.49,2.87-5.07,5.56-7.74-4.13-4.11-6.2-8.37-6.2-12.8,0-4.49,1.69-8.32,5.08-11.5,3.39-3.18,7.92-4.77,13.61-4.77,6.04,0,10.7,1.33,13.99,4l-3.65,6.77c-3.34-2.79-6.33-4.18-8.97-4.18-7.8,0-11.7,3.52-11.7,10.56,0,3.81,1.7,7.04,5.1,9.68h16.36v-11.25h8.36s0,11.38,0,11.38h10.95v7.04h-10.95v14.52c0,4.05.54,6.8,1.63,8.27,1.08,1.47,2.96,2.2,5.63,2.2,1.58,0,3.45-.54,5.59-1.63l1.19,7.79c-3.08.88-6.6,1.32-10.56,1.32-2.73,0-5.37-1.04-7.92-3.12h0ZM83.72,275.89v-17.77h-17.73c-2.79,3.58-4.18,7.33-4.18,11.26,0,9.15,4.47,13.72,13.42,13.72,3.99,0,6.98-.72,8.97-2.16-.32-1.35-.48-3.04-.48-5.06Z"/>
  </g>
</svg>