<svg width="845" height="187" viewBox="0 0 845 187" fill="none" xmlns="http://www.w3.org/2000/svg">
<path d="M312.08 0H0V187H312.08V0Z" fill="white"/>
<path d="M70.75 66.86C63.84 66.86 57.7 68.55 52.66 71.62V66.81H38.18V99.14H38.24C38.24 99.26 38.22 99.38 38.22 99.51V155.66H52.94V120.66C57.27 127.46 64.57 131.17 73.35 131.17C88.19 131.17 103.77 120.53 103.77 99.63C103.77 80.21 90.17 66.86 70.75 66.86ZM70.87 117.44C60.11 117.44 52.94 109.77 52.94 99.01C52.94 88.25 60.11 80.58 70.87 80.58C81.63 80.58 88.93 88.25 88.93 99.01C88.93 109.77 81.63 117.44 70.87 117.44Z" fill="#2B3A67"/>
<path d="M112.19 99.02C112.19 80.47 125.79 66.86 145.09 66.86C164.39 66.86 177.99 80.46 177.99 99.02C177.99 117.58 164.39 131.18 145.09 131.18C125.79 131.18 112.19 117.58 112.19 99.02ZM163.03 99.02C163.03 88.26 155.86 80.59 145.1 80.59C134.34 80.59 127.04 88.26 127.04 99.02C127.04 109.78 134.34 117.45 145.1 117.45C155.86 117.45 163.03 109.78 163.03 99.02Z" fill="#2B3A67"/>
<path d="M273.91 132.87H260.2L247.97 88.53L234.67 132.87H221.91L208.61 88.4L196.52 132.87H182.95L202.7 69.45H214.52L228.36 116.74L242.07 69.45H253.89L273.91 132.87Z" fill="#2B3A67"/>
<path d="M844.26 0H531.88V187H844.26V0Z" fill="white"/>
<path d="M576.42 49H591.19V137.13H576.42V49Z" fill="#2B3A67"/>
<path d="M602.98 106.97C602.98 87.48 616.63 74.08 636.12 74.08C655.61 74.08 668.77 87.11 668.77 106.85V137.01H655.24V124.97C651.52 134.03 643.2 138.62 633.52 138.62C618.63 138.62 602.98 127.95 602.98 106.97ZM654 106.35C654 95.55 646.8 87.86 636 87.86C625.2 87.86 617.88 95.56 617.88 106.35C617.88 117.14 625.2 124.84 636 124.84C646.8 124.84 654 117.14 654 106.35Z" fill="#2B3A67"/>
<path d="M737.52 74.21L737.44 88.48L776.62 88.55L740.19 122.68L725.25 74.24H712.65L699.52 118.02L687.45 74.24H673.92L693.69 136.86H705.36L718.89 90.16L732.55 136.86C732.55 136.86 738.89 136.92 744.59 136.92L785.68 97.34L786.3 136.47H799.72V74.32L737.52 74.19V74.21Z" fill="#2B3A67"/>
<path d="M514.39 0H329.57V187H514.39V0Z" fill="white"/>
<path d="M435.34 143.51C428.3 146.96 419.81 148.68 409.87 148.68C399.93 148.68 391.89 145.68 386.36 139.69C380.83 133.7 378.06 125.22 378.06 114.25C378.06 108.62 378.9 103.75 380.57 99.62C382.24 95.5 385.31 91.23 389.78 86.81C382.94 80.02 379.52 72.96 379.52 65.63C379.52 58.21 382.32 51.86 387.93 46.6C393.53 41.34 401.04 38.7 410.46 38.7C420.46 38.7 428.17 40.91 433.6 45.32L427.56 56.53C422.03 51.92 417.08 49.62 412.71 49.62C399.8 49.62 393.35 55.44 393.35 67.09C393.35 73.4 396.16 78.74 401.79 83.1H428.86V64.49L442.69 64.47V83.32H460.81V94.97H442.69V118.99C442.69 125.69 443.59 130.25 445.38 132.67C447.18 135.1 450.28 136.31 454.7 136.31C457.32 136.31 460.4 135.41 463.94 133.62L465.91 146.5C460.82 147.96 454.99 148.68 448.44 148.68C443.93 148.68 439.56 146.96 435.34 143.51ZM428.86 124.37V94.97H399.53C394.92 100.89 392.62 107.1 392.62 113.6C392.62 128.74 400.02 136.31 414.82 136.31C421.42 136.31 426.37 135.12 429.67 132.74C429.14 130.51 428.87 127.72 428.87 124.37H428.86Z" fill="#2B3A67"/>
</svg>
