<?xml version="1.0" encoding="UTF-8"?>
<svg id="Vrstva_1" data-name="Vrstva 1" xmlns="http://www.w3.org/2000/svg" viewBox="0 0 252.99 148.52">
  <defs>
    <style>
      .cls-1 {
        fill: #4a6a82;
      }

      .cls-1, .cls-2, .cls-3 {
        stroke-width: 0px;
      }

      .cls-2 {
        fill: #65999b;
      }

      .cls-3 {
        fill: #2b3a67;
      }
    </style>
  </defs>
  <polygon class="cls-2" points="153.67 45.73 153.67 57.85 189.02 57.85 156.29 89.81 160.28 102.79 196.93 66.39 196.96 102.73 208.94 102.73 208.94 45.73 153.67 45.73"/>
  <polygon class="cls-1" points="142.7 45.73 131.45 45.73 119.73 84.79 124.75 102.69 137.02 59.93 149.65 102.73 160.3 102.73 142.7 45.73"/>
  <polyline class="cls-3" points="119.73 84.79 108.96 45.73 96.89 45.73 96.96 45.96 84.72 88.23 72.32 45.87 61.74 45.87 44.05 102.67 56.2 102.67 67.03 62.84 78.94 102.67 90.37 102.67 102.28 62.96 113.23 102.67 123.22 102.67 124.75 102.69"/>
</svg>